<!-- CF Gutters Logo Placeholder - Replace with actual logo -->
<svg xmlns="http://www.w3.org/2000/svg" width="500" height="500" viewBox="0 0 500 500">
  <!-- Outer circle border -->
  <circle cx="250" cy="250" r="240" stroke="#1e2a78" stroke-width="20" fill="white"/>
  <circle cx="250" cy="250" r="220" stroke="#1e2a78" stroke-width="8" fill="white"/>
  
  <!-- House/roof structure -->
  <path d="M100 280 L180 200 L220 200 L320 200 L400 280 L380 320 L120 320 Z" fill="#1e2a78"/>
  
  <!-- Roof peak -->
  <path d="M160 200 L250 120 L340 200 L320 190 L250 140 L180 190 Z" fill="#1e2a78"/>
  
  <!-- Light blue roof detail -->
  <path d="M200 200 L250 160 L300 200 L280 190 L250 170 L220 190 Z" fill="#87ceeb"/>
  
  <!-- Gutter system -->
  <rect x="100" y="280" width="300" height="20" fill="#1e2a78"/>
  
  <!-- Gutter lines representation -->
  <rect x="100" y="300" width="60" height="8" fill="#1e2a78"/>
  <rect x="170" y="305" width="60" height="8" fill="#1e2a78"/>
  <rect x="240" y="300" width="60" height="8" fill="#1e2a78"/>
  <rect x="310" y="305" width="60" height="8" fill="#1e2a78"/>
  
  <!-- Downspout -->
  <rect x="390" y="280" width="12" height="60" fill="#1e2a78"/>
  
  <!-- CF GUTTERS text -->
  <text x="250" y="380" text-anchor="middle" font-family="Arial, sans-serif" font-size="48" font-weight="bold" fill="black">CF GUTTERS</text>
</svg>